<svg id="Layer_1" data-name="Layer 1" xmlns="http://www.w3.org/2000/svg" xmlns:xlink="http://www.w3.org/1999/xlink" viewBox="0 0 1333.68 2258.88">
  <defs>
    <style>
      .cls-1 {
        fill: url(#linear-gradient);
      }

      .cls-2 {
        fill: url(#linear-gradient-2);
      }

      .cls-3 {
        fill: url(#linear-gradient-3);
      }

      .cls-4 {
        fill: url(#linear-gradient-4);
      }

      .cls-5 {
        fill: #2e3191;
      }

      .cls-6 {
        fill: #00adee;
      }

      .cls-7 {
        fill: #006838;
      }

      .cls-8 {
        fill: url(#linear-gradient-5);
      }

      .cls-9 {
        fill: url(#linear-gradient-6);
      }

      .cls-10 {
        fill: url(#linear-gradient-7);
      }

      .cls-11 {
        fill: url(#linear-gradient-8);
      }

      .cls-12 {
        fill: url(#linear-gradient-9);
      }

      .cls-13 {
        fill: #eb008b;
      }

      .cls-14 {
        fill: url(#linear-gradient-10);
      }

      .cls-15 {
        fill: url(#linear-gradient-11);
      }

      .cls-16 {
        fill: url(#linear-gradient-12);
      }

      .cls-17 {
        fill: url(#linear-gradient-13);
      }

      .cls-18 {
        fill: url(#linear-gradient-14);
      }

      .cls-19 {
        fill: url(#linear-gradient-15);
      }

      .cls-20 {
        fill: url(#linear-gradient-16);
      }

      .cls-21 {
        fill: url(#linear-gradient-17);
      }

      .cls-22, .cls-23, .cls-24, .cls-25, .cls-26, .cls-27, .cls-28, .cls-29, .cls-30, .cls-31 {
        fill: none;
        stroke-miterlimit: 10;
        stroke-width: 10px;
      }

      .cls-22 {
        stroke: #d91c5c;
      }

      .cls-23 {
        stroke: #90278e;
      }

      .cls-24 {
        stroke: #d6de23;
      }

      .cls-25 {
        stroke: #1b75bb;
      }

      .cls-26 {
        stroke: #009345;
      }

      .cls-27 {
        stroke: #652d90;
      }

      .cls-28 {
        stroke: #29b473;
      }

      .cls-29 {
        stroke: #00adee;
      }

      .cls-30 {
        stroke: #b72025;
      }

      .cls-31 {
        stroke: #f9ec31;
      }

      .cls-32 {
        fill: #00b4f0;
      }

      .cls-33 {
        fill: #00c1f2;
      }

      .cls-34 {
        fill: #7bd2f6;
      }

      .cls-35 {
        fill: url(#linear-gradient-18);
      }

      .cls-36 {
        fill: url(#linear-gradient-19);
      }

      .cls-37 {
        fill: url(#linear-gradient-20);
      }

      .cls-38 {
        fill: url(#linear-gradient-21);
      }

      .cls-39 {
        fill: url(#linear-gradient-22);
      }

      .cls-40 {
        fill: url(#linear-gradient-23);
      }

      .cls-41 {
        fill: url(#linear-gradient-24);
      }

      .cls-42 {
        fill: url(#linear-gradient-25);
      }

      .cls-43 {
        fill: url(#linear-gradient-26);
      }

      .cls-44 {
        fill: url(#linear-gradient-27);
      }

      .cls-45 {
        fill: url(#linear-gradient-28);
      }

      .cls-46 {
        fill: url(#linear-gradient-29);
      }

      .cls-47 {
        fill: url(#linear-gradient-30);
      }

      .cls-48 {
        fill: url(#linear-gradient-31);
      }

      .cls-49 {
        fill: url(#linear-gradient-32);
      }

      .cls-50 {
        fill: url(#linear-gradient-33);
      }

      .cls-51 {
        fill: url(#linear-gradient-34);
      }

      .cls-52 {
        fill: url(#linear-gradient-35);
      }

      .cls-53 {
        fill: url(#linear-gradient-36);
      }

      .cls-54 {
        fill: url(#linear-gradient-37);
      }

      .cls-55 {
        fill: url(#linear-gradient-38);
      }

      .cls-56 {
        fill: url(#linear-gradient-39);
      }

      .cls-57 {
        fill: url(#linear-gradient-40);
      }

      .cls-58 {
        fill: url(#linear-gradient-41);
      }

      .cls-59 {
        fill: url(#linear-gradient-42);
      }

      .cls-60 {
        fill: url(#linear-gradient-43);
      }

      .cls-61 {
        fill: url(#linear-gradient-44);
      }

      .cls-62 {
        fill: url(#linear-gradient-45);
      }

      .cls-63 {
        fill: url(#linear-gradient-46);
      }

      .cls-64 {
        fill: url(#linear-gradient-47);
      }

      .cls-65 {
        fill: url(#linear-gradient-48);
      }

      .cls-66 {
        fill: url(#linear-gradient-49);
      }

      .cls-67 {
        fill: url(#linear-gradient-50);
      }

      .cls-68 {
        fill: url(#linear-gradient-51);
      }

      .cls-69 {
        fill: url(#linear-gradient-52);
      }

      .cls-70 {
        fill: url(#radial-gradient);
      }

      .cls-71 {
        fill: url(#linear-gradient-53);
      }

      .cls-72 {
        fill: url(#linear-gradient-54);
      }

      .cls-73 {
        fill: url(#linear-gradient-55);
      }

      .cls-74 {
        fill: url(#linear-gradient-56);
      }

      .cls-75 {
        fill: url(#linear-gradient-57);
      }

      .cls-76 {
        fill: url(#linear-gradient-58);
      }

      .cls-77 {
        fill: url(#linear-gradient-59);
      }

      .cls-78 {
        fill: url(#linear-gradient-60);
      }
    </style>
    <linearGradient id="linear-gradient" x1="650.92" y1="1675.57" x2="811.3" y2="1675.57" gradientTransform="matrix(1, 0, 0, -1, -86.71, 2723.1)" gradientUnits="userSpaceOnUse">
      <stop offset="0" stop-color="#fff7a9"/>
      <stop offset="0.5" stop-color="#fff100"/>
      <stop offset="1" stop-color="gold"/>
    </linearGradient>
    <linearGradient id="linear-gradient-2" x1="670.17" y1="1676.98" x2="789.53" y2="1676.98" gradientTransform="matrix(1, 0, 0, -1, -86.71, 2723.1)" gradientUnits="userSpaceOnUse">
      <stop offset="0" stop-color="#ffe8a3"/>
      <stop offset="0.5" stop-color="#ffca05"/>
      <stop offset="1" stop-color="#faac18"/>
    </linearGradient>
    <linearGradient id="linear-gradient-3" x1="693.38" y1="1676.98" x2="766.32" y2="1676.98" xlink:href="#linear-gradient"/>
    <linearGradient id="linear-gradient-4" x1="719.04" y1="1676.98" x2="740.66" y2="1676.98" gradientTransform="matrix(1, 0, 0, -1, -86.71, 2723.1)" gradientUnits="userSpaceOnUse">
      <stop offset="0" stop-color="#f69353"/>
      <stop offset="0.5" stop-color="#f37521"/>
      <stop offset="1" stop-color="#d4622a"/>
    </linearGradient>
    <linearGradient id="linear-gradient-5" x1="675.82" y1="2373.46" x2="736.05" y2="2373.46" gradientTransform="matrix(1, 0, 0, -1, 0, 2944)" gradientUnits="userSpaceOnUse">
      <stop offset="0" stop-color="#65c08a"/>
      <stop offset="0.5" stop-color="#00a551"/>
      <stop offset="1" stop-color="#00914d"/>
    </linearGradient>
    <linearGradient id="linear-gradient-6" x1="713.88" y1="2415.17" x2="753.55" y2="2415.17" gradientTransform="matrix(1, 0, 0, -1, 0, 2944)" gradientUnits="userSpaceOnUse">
      <stop offset="0" stop-color="#2483c5"/>
      <stop offset="1" stop-color="#2483c5" stop-opacity="0"/>
    </linearGradient>
    <linearGradient id="linear-gradient-7" x1="706.51" y1="2312.74" x2="750.92" y2="2312.74" xlink:href="#linear-gradient-5"/>
    <linearGradient id="linear-gradient-8" x1="771.44" y1="2351.87" x2="793.27" y2="2351.87" xlink:href="#linear-gradient-5"/>
    <linearGradient id="linear-gradient-9" x1="11695.76" y1="4170.78" x2="11837.74" y2="4170.78" gradientTransform="matrix(-1, 0, 0, 1, 12409.97, -3803.29)" gradientUnits="userSpaceOnUse">
      <stop offset="0" stop-color="#2483c5"/>
      <stop offset="0.08" stop-color="#2483c5" stop-opacity="0.81"/>
      <stop offset="0.18" stop-color="#2483c5" stop-opacity="0.6"/>
      <stop offset="0.29" stop-color="#2483c5" stop-opacity="0.41"/>
      <stop offset="0.41" stop-color="#2483c5" stop-opacity="0.26"/>
      <stop offset="0.53" stop-color="#2483c5" stop-opacity="0.15"/>
      <stop offset="0.66" stop-color="#2483c5" stop-opacity="0.06"/>
      <stop offset="0.81" stop-color="#2483c5" stop-opacity="0.02"/>
      <stop offset="1" stop-color="#2483c5" stop-opacity="0"/>
    </linearGradient>
    <linearGradient id="linear-gradient-10" x1="732.93" y1="2159.6" x2="797.03" y2="2159.6" gradientTransform="matrix(1, 0, 0, -1, -86.71, 2723.1)" gradientUnits="userSpaceOnUse">
      <stop offset="0" stop-color="#f075ac"/>
      <stop offset="0.5" stop-color="#eb008b"/>
      <stop offset="1" stop-color="#ce118b"/>
    </linearGradient>
    <linearGradient id="linear-gradient-11" x1="683.43" y1="2176.4" x2="747.53" y2="2176.4" xlink:href="#linear-gradient-10"/>
    <linearGradient id="linear-gradient-12" x1="643.69" y1="2134.23" x2="707.79" y2="2134.23" xlink:href="#linear-gradient-10"/>
    <linearGradient id="linear-gradient-13" x1="651.38" y1="2086.78" x2="715.48" y2="2086.78" xlink:href="#linear-gradient-10"/>
    <linearGradient id="linear-gradient-14" x1="706.61" y1="2071.9" x2="770.71" y2="2071.9" xlink:href="#linear-gradient-10"/>
    <linearGradient id="linear-gradient-15" x1="747.54" y1="2109.73" x2="811.64" y2="2109.73" xlink:href="#linear-gradient-10"/>
    <linearGradient id="linear-gradient-16" x1="690.58" y1="2118.83" x2="766.02" y2="2118.83" xlink:href="#linear-gradient"/>
    <linearGradient id="linear-gradient-17" x1="700.11" y1="2117.89" x2="756.49" y2="2117.89" xlink:href="#linear-gradient"/>
    <linearGradient id="linear-gradient-18" x1="854.67" y1="1675.58" x2="1015.05" y2="1675.58" xlink:href="#linear-gradient"/>
    <linearGradient id="linear-gradient-19" x1="873.92" y1="1677" x2="993.28" y2="1677" xlink:href="#linear-gradient-2"/>
    <linearGradient id="linear-gradient-20" x1="897.13" y1="1677" x2="970.07" y2="1677" xlink:href="#linear-gradient"/>
    <linearGradient id="linear-gradient-21" x1="922.79" y1="1677" x2="944.41" y2="1677" xlink:href="#linear-gradient-4"/>
    <linearGradient id="linear-gradient-22" x1="879.54" y1="2373.47" x2="939.77" y2="2373.47" xlink:href="#linear-gradient-5"/>
    <linearGradient id="linear-gradient-23" x1="917.61" y1="2415.18" x2="957.3" y2="2415.18" xlink:href="#linear-gradient-6"/>
    <linearGradient id="linear-gradient-24" x1="910.26" y1="2312.74" x2="954.66" y2="2312.74" xlink:href="#linear-gradient-5"/>
    <linearGradient id="linear-gradient-25" x1="975.2" y1="2351.88" x2="997.04" y2="2351.88" xlink:href="#linear-gradient-5"/>
    <linearGradient id="linear-gradient-26" x1="11492.01" y1="4170.76" x2="11633.99" y2="4170.76" xlink:href="#linear-gradient-9"/>
    <linearGradient id="linear-gradient-27" x1="936.67" y1="2159.62" x2="1000.77" y2="2159.62" xlink:href="#linear-gradient-10"/>
    <linearGradient id="linear-gradient-28" x1="887.18" y1="2176.42" x2="951.28" y2="2176.42" xlink:href="#linear-gradient-10"/>
    <linearGradient id="linear-gradient-29" x1="847.43" y1="2134.25" x2="911.53" y2="2134.25" xlink:href="#linear-gradient-10"/>
    <linearGradient id="linear-gradient-30" x1="855.13" y1="2086.79" x2="919.23" y2="2086.79" xlink:href="#linear-gradient-10"/>
    <linearGradient id="linear-gradient-31" x1="910.36" y1="2071.92" x2="974.46" y2="2071.92" xlink:href="#linear-gradient-10"/>
    <linearGradient id="linear-gradient-32" x1="951.29" y1="2109.75" x2="1015.39" y2="2109.75" xlink:href="#linear-gradient-10"/>
    <linearGradient id="linear-gradient-33" x1="894.33" y1="2118.85" x2="969.77" y2="2118.85" xlink:href="#linear-gradient"/>
    <linearGradient id="linear-gradient-34" x1="903.86" y1="2117.9" x2="960.24" y2="2117.9" xlink:href="#linear-gradient"/>
    <linearGradient id="linear-gradient-35" x1="1057.67" y1="1675.69" x2="1218.05" y2="1675.69" xlink:href="#linear-gradient"/>
    <linearGradient id="linear-gradient-36" x1="1076.93" y1="1677.1" x2="1196.29" y2="1677.1" xlink:href="#linear-gradient-2"/>
    <linearGradient id="linear-gradient-37" x1="1100.14" y1="1677.1" x2="1173.08" y2="1677.1" xlink:href="#linear-gradient"/>
    <linearGradient id="linear-gradient-38" x1="1125.8" y1="1677.1" x2="1147.42" y2="1677.1" xlink:href="#linear-gradient-4"/>
    <linearGradient id="linear-gradient-39" x1="1082.56" y1="2373.58" x2="1142.8" y2="2373.58" xlink:href="#linear-gradient-5"/>
    <linearGradient id="linear-gradient-40" x1="1120.61" y1="2415.3" x2="1160.3" y2="2415.3" xlink:href="#linear-gradient-6"/>
    <linearGradient id="linear-gradient-41" x1="1113.28" y1="2312.9" x2="1157.67" y2="2312.9" xlink:href="#linear-gradient-5"/>
    <linearGradient id="linear-gradient-42" x1="1178.21" y1="2351.99" x2="1200.05" y2="2351.99" xlink:href="#linear-gradient-5"/>
    <linearGradient id="linear-gradient-43" x1="11289" y1="4170.66" x2="11430.98" y2="4170.66" xlink:href="#linear-gradient-9"/>
    <linearGradient id="linear-gradient-44" x1="1139.68" y1="2159.73" x2="1203.78" y2="2159.73" xlink:href="#linear-gradient-10"/>
    <linearGradient id="linear-gradient-45" x1="1090.19" y1="2176.52" x2="1154.29" y2="2176.52" xlink:href="#linear-gradient-10"/>
    <linearGradient id="linear-gradient-46" x1="1050.44" y1="2134.36" x2="1114.54" y2="2134.36" xlink:href="#linear-gradient-10"/>
    <linearGradient id="linear-gradient-47" x1="1058.14" y1="2086.9" x2="1122.24" y2="2086.9" xlink:href="#linear-gradient-10"/>
    <linearGradient id="linear-gradient-48" x1="1113.37" y1="2072.02" x2="1177.47" y2="2072.02" xlink:href="#linear-gradient-10"/>
    <linearGradient id="linear-gradient-49" x1="1154.3" y1="2109.85" x2="1218.4" y2="2109.85" xlink:href="#linear-gradient-10"/>
    <linearGradient id="linear-gradient-50" x1="1097.34" y1="2118.95" x2="1172.78" y2="2118.95" xlink:href="#linear-gradient"/>
    <linearGradient id="linear-gradient-51" x1="1106.87" y1="2118.01" x2="1163.25" y2="2118.01" xlink:href="#linear-gradient"/>
    <linearGradient id="linear-gradient-52" x1="3734.71" y1="1877.86" x2="5014.03" y2="1877.86" gradientTransform="matrix(-0.23, -0.51, -0.91, 0.41, 2996.94, 2060.08)" gradientUnits="userSpaceOnUse">
      <stop offset="0" stop-color="#e5e2df"/>
      <stop offset="0" stop-color="#f1efee"/>
      <stop offset="0" stop-color="#fff"/>
      <stop offset="0.13" stop-color="#f0f0f1"/>
      <stop offset="0.37" stop-color="#c9cacb"/>
      <stop offset="0.52" stop-color="#adaeb0"/>
      <stop offset="0.6" stop-color="#a3a5a7"/>
      <stop offset="0.74" stop-color="#898d90"/>
      <stop offset="0.91" stop-color="#5f6769"/>
      <stop offset="1" stop-color="#465053"/>
    </linearGradient>
    <radialGradient id="radial-gradient" cx="216.56" cy="2459.13" fx="345.1050037050902" r="129.85" gradientTransform="matrix(1, 0, 0, -1, -86.71, 2723.1)" gradientUnits="userSpaceOnUse">
      <stop offset="0" stop-color="#e5e2df"/>
      <stop offset="0" stop-color="#f1efee"/>
      <stop offset="0" stop-color="#fff"/>
      <stop offset="0.11" stop-color="#ededed"/>
      <stop offset="0.52" stop-color="#adaeb0"/>
      <stop offset="0.61" stop-color="#a5a7a9"/>
      <stop offset="0.74" stop-color="#8f9396"/>
      <stop offset="0.89" stop-color="#6c7476"/>
      <stop offset="1" stop-color="#505b5e"/>
    </radialGradient>
    <linearGradient id="linear-gradient-53" x1="6026.14" y1="-1036.28" x2="7997.92" y2="-1036.28" gradientTransform="matrix(0, 1, 1, 0, 2282.23, -6026.14)" xlink:href="#linear-gradient-52"/>
    <linearGradient id="linear-gradient-54" x1="6919.02" y1="-1235.26" x2="8285.02" y2="-1235.26" gradientTransform="matrix(0, 1, 1, 0, 2282.23, -6026.14)" xlink:href="#linear-gradient-52"/>
    <linearGradient id="linear-gradient-55" x1="6026.14" y1="-1811.64" x2="6919.02" y2="-1811.64" gradientTransform="matrix(0, 1, 1, 0, 2282.23, -6026.14)" xlink:href="#linear-gradient-52"/>
    <linearGradient id="linear-gradient-56" x1="472.38" y1="1926.42" x2="1246.73" y2="1926.42" gradientTransform="matrix(1, 0, 0, -1, -86.71, 2723.1)" xlink:href="#linear-gradient-52"/>
    <linearGradient id="linear-gradient-57" x1="245.48" y1="1051.11" x2="1019.83" y2="1051.11" gradientTransform="matrix(1, 0, 0, -1, -86.71, 2723.1)" xlink:href="#linear-gradient-52"/>
    <linearGradient id="linear-gradient-58" x1="245.48" y1="1734.15" x2="1246.73" y2="1734.15" gradientTransform="matrix(1, 0, 0, -1, -86.71, 2723.1)" xlink:href="#linear-gradient-52"/>
    <linearGradient id="linear-gradient-59" x1="472.38" y1="2412.27" x2="1246.73" y2="2412.27" gradientTransform="matrix(1, 0, 0, -1, -86.71, 2723.1)" xlink:href="#linear-gradient-52"/>
    <linearGradient id="linear-gradient-60" x1="472.38" y1="2659.98" x2="1420.39" y2="2659.98" gradientTransform="matrix(1, 0, 0, -1, -86.71, 2723.1)" xlink:href="#linear-gradient-52"/>
  </defs>
  <title>e</title>
  <g id="ir1">
    <g>
      <g>
        <g>
          <circle class="cls-1" cx="644.4" cy="1047.53" r="80.19"/>
          <circle class="cls-2" cx="643.14" cy="1046.12" r="59.68"/>
          <circle class="cls-3" cx="643.14" cy="1046.12" r="36.47"/>
        </g>
        <circle class="cls-4" cx="643.14" cy="1046.12" r="10.81"/>
      </g>
      <g>
        <circle class="cls-5" cx="646.24" cy="367.4" r="70.01"/>
        <circle class="cls-6" cx="643.22" cy="368.64" r="70.01"/>
        <path class="cls-7" d="M717.85,605.29l-15.28-13.9c-1.19-1.08-2.48-2.67-1.75-4.1s2.54-1.34,4-1.17l11.52,1.34c-1.49-3.42-.49-7.48,1.48-10.64s4.79-5.68,7.34-8.4a15.78,15.78,0,0,1,4.32-3.74c1-.5,2.16-.75,3.22-1.16a11.25,11.25,0,0,0,6.55-6.81,5.59,5.59,0,0,0,.3-2.89c-.37-1.8-2-3-3.48-4.11-2.41-1.73-4.89-3.49-7.76-4.25s-6.24-.32-8.25,1.85c-1.69,1.81-3,5-5.42,4.42a3.41,3.41,0,0,1-2-1.63c-2.09-3.34.71-8.9,4.58-8.15,1-.44.94-2.07.1-2.8a5.08,5.08,0,0,0-3.16-.88l-11.93-.56c-2.93-.14-6-.24-8.59,1.17a13.55,13.55,0,0,0-3.6,3.19c-7.68,8.87-12.16,20.95-10.18,32.51A33.48,33.48,0,0,0,698.74,599c1.65.75,3.36,1.36,5.07,2l11.42,4" transform="translate(-86.71 -220.9)"/>
        <path class="cls-8" d="M714.25,604.37,699,590.48c-1.18-1.08-2.48-2.67-1.75-4.1s2.54-1.34,4-1.17l11.52,1.33c-1.49-3.41-.49-7.47,1.48-10.63s4.79-5.68,7.34-8.4a16,16,0,0,1,4.33-3.75c1-.5,2.15-.74,3.22-1.15a11.26,11.26,0,0,0,6.54-6.81,5.59,5.59,0,0,0,.3-2.89c-.37-1.8-2-3-3.48-4.12-2.41-1.72-4.89-3.48-7.76-4.24s-6.24-.33-8.25,1.85c-1.69,1.81-3,5-5.42,4.42a3.45,3.45,0,0,1-2-1.63c-2.09-3.35.71-8.9,4.58-8.15,1-.45.94-2.07.1-2.8a5,5,0,0,0-3.16-.88l-11.93-.57c-2.93-.14-6-.24-8.59,1.18a13.55,13.55,0,0,0-3.6,3.19c-7.68,8.87-12.16,20.94-10.18,32.51a33.49,33.49,0,0,0,18.89,24.43c1.64.75,3.35,1.35,5.06,2l11.42,4.07" transform="translate(-86.71 -220.9)"/>
        <path class="cls-9" d="M716.89,530.31c3.49,0,7.05-.08,10.36,1,1.78.59,3.43,1.48,5.18,2.13a26.64,26.64,0,0,0,9.32,1.47,17.18,17.18,0,0,0,7.13-1.2,8,8,0,0,0,4.67-5.25l-3.94-2.59a9.36,9.36,0,0,0-6-1.94l-16.33-1.07c-4.43-.3-9.49-.36-12.57,2.84a3.07,3.07,0,0,0-.79,1.24,2.45,2.45,0,0,0,1.39,2.59,7.27,7.27,0,0,0,3.09.59" transform="translate(-86.71 -220.9)"/>
        <path class="cls-7" d="M715.06,608.07a10.06,10.06,0,0,0-3.35,3.54c-.68,1.48-.43,3.54,1,4.37-1.65-.63-3.11,1.68-2.59,3.36s2.08,2.78,3.31,4c5.42,5.53,4.85,14.31,5,22.06,0,2.47.55,5.46,2.86,6.35,2.48,1,4.9-1.25,7.2-2.58a33.12,33.12,0,0,1,4.37-1.89,39,39,0,0,0,20-18.33,11.61,11.61,0,0,0,1.56-5.45A4.92,4.92,0,0,0,751.5,619c-1.88-.66-3.9.27-5.86.64s-4.58-.35-4.75-2.34c-.12-1.45,1.13-3.19.08-4.21a2.54,2.54,0,0,0-1.75-.48c-3.9-.06-8.45,0-10.83-3.08a7.86,7.86,0,0,0-1.55-1.85,4.67,4.67,0,0,0-2.67-.51l-9.77.13" transform="translate(-86.71 -220.9)"/>
        <path class="cls-10" d="M711.55,609.8a10.08,10.08,0,0,0-3.34,3.53c-.68,1.49-.43,3.55,1,4.38-1.65-.63-3.11,1.67-2.59,3.35s2.08,2.79,3.31,4c5.42,5.53,4.85,14.31,5,22.06,0,2.47.55,5.46,2.86,6.35,2.47.94,4.9-1.26,7.2-2.58a33.17,33.17,0,0,1,4.37-1.9,38.88,38.88,0,0,0,20-18.32,11.77,11.77,0,0,0,1.56-5.46,4.9,4.9,0,0,0-2.92-4.53c-1.88-.66-3.9.27-5.86.64s-4.58-.35-4.75-2.34c-.12-1.46,1.13-3.19.08-4.21a2.54,2.54,0,0,0-1.75-.48c-3.9-.06-8.45,0-10.84-3.09a7.54,7.54,0,0,0-1.54-1.84,4.67,4.67,0,0,0-2.67-.51l-9.77.13" transform="translate(-86.71 -220.9)"/>
        <path class="cls-7" d="M783.6,615.12v-13.7a4.4,4.4,0,0,0-.44-2.37c-1.07-1.71-3.61-1.19-5.62-1.22a8,8,0,0,1-5.34-2.2c-2.93-2.83-3.22-7.34-3.32-11.41s-.14-8.43,2.06-11.87a14.65,14.65,0,0,1,6-5,4.62,4.62,0,0,1,3.57-.59,5.08,5.08,0,0,1,1.82,1.46c2.51,2.75,5.09,5.63,6.14,9.2,1.25,4.3.11,8.91.56,13.37.36,3.56,1.75,7,1.64,10.59-.16,4.9-3.07,9.22-5.87,13.23l-.69-.54" transform="translate(-86.71 -220.9)"/>
        <path class="cls-11" d="M786.2,616.38v-13.7a4.31,4.31,0,0,0-.45-2.37c-1.07-1.71-3.6-1.19-5.61-1.22a7.91,7.91,0,0,1-5.35-2.2c-2.92-2.83-3.21-7.34-3.31-11.41s-.14-8.43,2.06-11.87a14.73,14.73,0,0,1,6-5,4.6,4.6,0,0,1,3.56-.59,5.11,5.11,0,0,1,1.83,1.46c2.51,2.75,5.09,5.64,6.13,9.21,1.26,4.29.12,8.91.57,13.36.36,3.56,1.75,7,1.63,10.59-.15,4.9-3.06,9.22-5.87,13.24l-.68-.55" transform="translate(-86.71 -220.9)"/>
        <circle class="cls-12" cx="643.22" cy="367.49" r="70.99"/>
      </g>
      <g>
        <circle class="cls-13" cx="697.25" cy="610.81" r="32.05"/>
        <circle class="cls-13" cx="678.27" cy="559.79" r="32.05"/>
        <circle class="cls-13" cx="631.45" cy="546.7" r="32.05"/>
        <circle class="cls-13" cx="590.31" cy="587.09" r="32.05"/>
        <circle class="cls-13" cx="596.72" cy="630.44" r="32.05"/>
        <circle class="cls-13" cx="656.36" cy="648.01" r="32.05"/>
        <circle class="cls-14" cx="678.27" cy="563.5" r="32.05"/>
        <circle class="cls-15" cx="628.77" cy="546.7" r="32.05"/>
        <circle class="cls-16" cx="589.03" cy="588.87" r="32.05"/>
        <circle class="cls-17" cx="596.72" cy="636.32" r="32.05"/>
        <circle class="cls-18" cx="651.95" cy="651.2" r="32.05"/>
        <circle class="cls-19" cx="692.88" cy="613.37" r="32.05"/>
        <circle class="cls-20" cx="641.59" cy="604.27" r="37.72"/>
        <circle class="cls-21" cx="641.59" cy="605.21" r="28.19"/>
      </g>
      <g>
        <path class="cls-22" d="M727.08,323.27c-50.53,0-91.49,41.26-91.49,92.15" transform="translate(-86.71 -220.9)"/>
        <path class="cls-23" d="M724.5,340.92c-37.6,0-69.87,32.34-69.87,73.46" transform="translate(-86.71 -220.9)"/>
        <path class="cls-24" d="M725.86,356.88c-29.64,0-56.84,24.9-56.84,58" transform="translate(-86.71 -220.9)"/>
        <path class="cls-25" d="M725.86,390.41c-14.17,0-25.14,9.64-25.14,23.81" transform="translate(-86.71 -220.9)"/>
        <path class="cls-26" d="M725.86,372.33c-21.25,0-41.66,18.69-41.66,42.18" transform="translate(-86.71 -220.9)"/>
        <path class="cls-25" d="M725.86,390.22C740,390.22,751,399.86,751,414" transform="translate(-86.71 -220.9)"/>
        <path class="cls-26" d="M724.5,372.33c23,0,45,18.69,45,42.18" transform="translate(-86.71 -220.9)"/>
        <path class="cls-23" d="M725.86,340.75c41.86,0,77.8,32.92,77.8,74.78" transform="translate(-86.71 -220.9)"/>
        <path class="cls-22" d="M731,323.26a93.18,93.18,0,0,1,93.18,93.18" transform="translate(-86.71 -220.9)"/>
        <path class="cls-27" d="M650.31,415.11a74.19,74.19,0,0,1,148.38,0" transform="translate(-86.71 -220.9)"/>
        <path class="cls-28" d="M681.16,414.94a42.32,42.32,0,0,1,84.63,0" transform="translate(-86.71 -220.9)"/>
        <path class="cls-29" d="M699.09,414.51a24.39,24.39,0,0,1,48.78,0" transform="translate(-86.71 -220.9)"/>
        <path class="cls-30" d="M632.13,416.44a93.18,93.18,0,0,1,186.36,0" transform="translate(-86.71 -220.9)"/>
        <path class="cls-24" d="M723.48,356.52c32.52,0,62.38,24.46,62.38,57" transform="translate(-86.71 -220.9)"/>
        <path class="cls-31" d="M665.42,414.94a58.06,58.06,0,0,1,116.12-.05v.05" transform="translate(-86.71 -220.9)"/>
      </g>
      <path class="cls-6" d="M740.06,961.8c-5.84-17.07,55.18,99.64,55.25,117s3.53,44-44.78,44-51.88-18-51.88-43.35S745.91,978.87,740.06,961.8Z" transform="translate(-86.71 -220.9)"/>
      <path class="cls-32" d="M742.15,985.76c-4.08-11.93,38.58,69.67,38.63,81.77s2.47,30.75-31.3,30.79-36.28-12.54-36.28-30.3S746.24,997.7,742.15,985.76Z" transform="translate(-86.71 -220.9)"/>
      <path class="cls-33" d="M744.31,1010.38c-2.28-6.66,21.52,38.87,21.55,45.62s1.37,17.15-17.47,17.18-20.24-7-20.24-16.91S746.58,1017,744.31,1010.38Z" transform="translate(-86.71 -220.9)"/>
      <path class="cls-34" d="M711.24,1076.74c-1.77,8.29-1.09,17.4,4.69,24.58s22.22,9.35,27.27,1.87c1.51-2.22-.55-4.8-.38-7.29.39-5.51-2.62-11-2.23-16.54.34-4.95,3.83-9.64-.5-13.35-5.94-5.09-27.43-5.39-28.85,10.73" transform="translate(-86.71 -220.9)"/>
    </g>
  </g>
  <g id="ir2">
    <g>
      <g>
        <g>
          <circle class="cls-35" cx="848.15" cy="1047.52" r="80.19"/>
          <circle class="cls-36" cx="846.89" cy="1046.1" r="59.68"/>
          <circle class="cls-37" cx="846.89" cy="1046.1" r="36.47"/>
        </g>
        <circle class="cls-38" cx="846.89" cy="1046.1" r="10.81"/>
      </g>
      <g>
        <circle class="cls-5" cx="849.99" cy="367.39" r="70.01"/>
        <circle class="cls-6" cx="846.97" cy="368.62" r="70.01"/>
        <path class="cls-7" d="M921.6,605.27l-15.28-13.89c-1.19-1.08-2.48-2.68-1.75-4.1s2.54-1.35,4-1.18l11.51,1.34c-1.48-3.42-.48-7.48,1.49-10.64s4.79-5.68,7.34-8.39a16,16,0,0,1,4.32-3.75,34.1,34.1,0,0,1,3.22-1.15,11.27,11.27,0,0,0,6.55-6.82,5.55,5.55,0,0,0,.3-2.88c-.37-1.81-2-3-3.48-4.12-2.41-1.73-4.89-3.48-7.76-4.25s-6.24-.32-8.26,1.85c-1.68,1.82-3,5-5.41,4.42a3.35,3.35,0,0,1-2-1.63c-2.09-3.34.71-8.9,4.58-8.15,1-.44.93-2.07.09-2.8a5.15,5.15,0,0,0-3.16-.88l-11.9-.56c-2.93-.14-6-.24-8.59,1.18a13.69,13.69,0,0,0-3.6,3.18c-7.68,8.88-12.16,21-10.18,32.52A33.55,33.55,0,0,0,902.49,599c1.65.74,3.36,1.35,5.07,2L919,605" transform="translate(-86.71 -220.9)"/>
        <path class="cls-39" d="M918,604.36l-15.28-13.9c-1.19-1.08-2.48-2.67-1.75-4.1s2.54-1.34,4-1.17l11.52,1.34c-1.49-3.42-.49-7.48,1.48-10.64s4.79-5.68,7.34-8.4a15.78,15.78,0,0,1,4.32-3.74,34.15,34.15,0,0,1,3.22-1.16,11.25,11.25,0,0,0,6.55-6.81,5.59,5.59,0,0,0,.3-2.89c-.37-1.8-2-3-3.48-4.12-2.41-1.72-4.89-3.48-7.76-4.24s-6.24-.32-8.25,1.85c-1.69,1.81-3,5-5.42,4.42a3.41,3.41,0,0,1-2-1.63c-2.09-3.35.71-8.9,4.58-8.15,1-.44.94-2.07.1-2.8a5,5,0,0,0-3.17-.88l-11.92-.57c-2.93-.13-6-.24-8.59,1.18a13.55,13.55,0,0,0-3.6,3.19c-7.68,8.87-12.16,21-10.18,32.51a33.52,33.52,0,0,0,18.88,24.43c1.65.75,3.36,1.36,5.07,2l11.42,4.07" transform="translate(-86.71 -220.9)"/>
        <path class="cls-40" d="M920.64,530.29c3.49,0,7.05-.08,10.36,1,1.77.59,3.43,1.48,5.18,2.13a26.88,26.88,0,0,0,9.32,1.48,17.35,17.35,0,0,0,7.13-1.21,8,8,0,0,0,4.67-5.25l-3.95-2.58a11.28,11.28,0,0,0-2.5-1.38,12.21,12.21,0,0,0-3.5-.57L931,522.85c-4.44-.29-9.49-.36-12.57,2.84a2.94,2.94,0,0,0-.79,1.25,2.46,2.46,0,0,0,1.39,2.58,7.23,7.23,0,0,0,3.08.59" transform="translate(-86.71 -220.9)"/>
        <path class="cls-7" d="M918.8,608.05a10.2,10.2,0,0,0-3.34,3.54c-.68,1.49-.43,3.54,1,4.37-1.65-.63-3.11,1.68-2.59,3.36s2.08,2.78,3.31,4c5.42,5.52,4.85,14.31,5,22,0,2.47.55,5.46,2.86,6.35,2.47,1,4.9-1.25,7.2-2.58a33.12,33.12,0,0,1,4.37-1.89,39,39,0,0,0,20-18.33,11.61,11.61,0,0,0,1.56-5.45,4.9,4.9,0,0,0-2.92-4.53c-1.88-.66-3.9.26-5.86.63s-4.58-.35-4.75-2.33c-.13-1.46,1.13-3.2.08-4.21a2.55,2.55,0,0,0-1.75-.49c-3.9-.06-8.45,0-10.84-3.08a7.41,7.41,0,0,0-1.54-1.85,4.58,4.58,0,0,0-2.67-.5l-9.77.12" transform="translate(-86.71 -220.9)"/>
        <path class="cls-41" d="M915.3,609.78a10.11,10.11,0,0,0-3.34,3.54c-.68,1.49-.43,3.54,1,4.37-1.65-.63-3.11,1.68-2.59,3.36s2.07,2.78,3.31,4c5.42,5.53,4.85,14.32,5,22.06,0,2.47.55,5.46,2.86,6.35,2.47,1,4.9-1.25,7.2-2.58a33.12,33.12,0,0,1,4.37-1.89,39,39,0,0,0,20-18.33,11.6,11.6,0,0,0,1.55-5.45,4.89,4.89,0,0,0-2.91-4.54c-1.88-.66-3.9.27-5.86.64s-4.58-.35-4.75-2.33c-.13-1.46,1.13-3.2.08-4.21a2.5,2.5,0,0,0-1.75-.49c-3.9-.06-8.45,0-10.84-3.08a7.41,7.41,0,0,0-1.54-1.85,4.67,4.67,0,0,0-2.67-.51l-9.77.13" transform="translate(-86.71 -220.9)"/>
        <path class="cls-7" d="M987.34,615.1V601.4a4.31,4.31,0,0,0-.45-2.37c-1.06-1.71-3.6-1.19-5.61-1.22a8,8,0,0,1-5.35-2.2c-2.92-2.83-3.21-7.34-3.31-11.41s-.14-8.43,2.06-11.87a14.73,14.73,0,0,1,6-5,4.6,4.6,0,0,1,3.56-.59,5.11,5.11,0,0,1,1.83,1.46c2.51,2.75,5.09,5.64,6.13,9.2,1.26,4.3.12,8.92.57,13.37.36,3.56,1.75,7,1.64,10.59-.16,4.9-3.07,9.22-5.88,13.24l-.68-.55" transform="translate(-86.71 -220.9)"/>
        <path class="cls-42" d="M990,616.37V602.66a4.4,4.4,0,0,0-.45-2.37c-1.07-1.71-3.6-1.19-5.61-1.21a8,8,0,0,1-5.35-2.21c-2.92-2.83-3.21-7.34-3.32-11.4s-.13-8.44,2.07-11.88a14.73,14.73,0,0,1,6-5,4.6,4.6,0,0,1,3.56-.6,5.11,5.11,0,0,1,1.83,1.46c2.51,2.76,5.09,5.64,6.13,9.21,1.26,4.29.11,8.91.57,13.36.36,3.56,1.75,7,1.63,10.6-.15,4.89-3.06,9.21-5.87,13.23l-.68-.55" transform="translate(-86.71 -220.9)"/>
        <circle class="cls-43" cx="846.97" cy="367.47" r="70.99"/>
      </g>
      <g>
        <circle class="cls-13" cx="901" cy="610.79" r="32.05"/>
        <circle class="cls-13" cx="882.01" cy="559.77" r="32.05"/>
        <circle class="cls-13" cx="835.2" cy="546.68" r="32.05"/>
        <circle class="cls-13" cx="794.06" cy="587.07" r="32.05"/>
        <circle class="cls-13" cx="800.47" cy="630.42" r="32.05"/>
        <circle class="cls-13" cx="860.11" cy="647.99" r="32.05"/>
        <circle class="cls-44" cx="882.01" cy="563.48" r="32.05"/>
        <circle class="cls-45" cx="832.52" cy="546.68" r="32.05"/>
        <circle class="cls-46" cx="792.77" cy="588.85" r="32.05"/>
        <circle class="cls-47" cx="800.47" cy="636.31" r="32.05"/>
        <circle class="cls-48" cx="855.7" cy="651.18" r="32.05"/>
        <circle class="cls-49" cx="896.63" cy="613.35" r="32.05"/>
        <circle class="cls-50" cx="845.34" cy="604.25" r="37.72"/>
        <circle class="cls-51" cx="845.34" cy="605.2" r="28.19"/>
      </g>
      <g>
        <path class="cls-22" d="M930.83,323.26c-50.53,0-91.49,41.25-91.49,92.14" transform="translate(-86.71 -220.9)"/>
        <path class="cls-23" d="M928.25,340.9c-37.6,0-69.88,32.34-69.88,73.47" transform="translate(-86.71 -220.9)"/>
        <path class="cls-24" d="M929.61,356.86c-29.64,0-56.84,24.9-56.84,58" transform="translate(-86.71 -220.9)"/>
        <path class="cls-25" d="M929.61,390.39c-14.17,0-25.14,9.64-25.14,23.81" transform="translate(-86.71 -220.9)"/>
        <path class="cls-26" d="M929.61,372.32c-21.25,0-41.67,18.68-41.67,42.17" transform="translate(-86.71 -220.9)"/>
        <path class="cls-25" d="M929.61,390.2c14.16,0,25.13,9.64,25.13,23.81" transform="translate(-86.71 -220.9)"/>
        <path class="cls-26" d="M928.25,372.32c23,0,45,18.68,45,42.17" transform="translate(-86.71 -220.9)"/>
        <path class="cls-23" d="M929.61,340.74c41.85,0,77.8,32.91,77.8,74.77" transform="translate(-86.71 -220.9)"/>
        <path class="cls-22" d="M934.7,323.24a93.18,93.18,0,0,1,93.18,93.18" transform="translate(-86.71 -220.9)"/>
        <path class="cls-27" d="M854.06,415.09a74.19,74.19,0,0,1,148.38,0" transform="translate(-86.71 -220.9)"/>
        <path class="cls-28" d="M884.91,414.92a42.32,42.32,0,0,1,84.63,0" transform="translate(-86.71 -220.9)"/>
        <path class="cls-29" d="M902.84,414.49a24.39,24.39,0,1,1,48.77-1q0,.5,0,1" transform="translate(-86.71 -220.9)"/>
        <path class="cls-30" d="M835.88,416.42a93.18,93.18,0,0,1,186.36,0" transform="translate(-86.71 -220.9)"/>
        <path class="cls-24" d="M927.23,356.5c32.52,0,62.38,24.46,62.38,57" transform="translate(-86.71 -220.9)"/>
        <path class="cls-31" d="M869.16,414.92a58.07,58.07,0,0,1,116.13,0" transform="translate(-86.71 -220.9)"/>
      </g>
      <path class="cls-6" d="M943.81,961.78c-5.85-17.07,55.17,99.64,55.25,117s3.53,44-44.78,44-51.88-18-51.88-43.34S949.65,978.85,943.81,961.78Z" transform="translate(-86.71 -220.9)"/>
      <path class="cls-32" d="M945.9,985.75c-4.08-11.94,38.58,69.66,38.63,81.76s2.47,30.75-31.31,30.8S917,1085.76,917,1068,950,997.68,945.9,985.75Z" transform="translate(-86.71 -220.9)"/>
      <path class="cls-33" d="M948.05,1010.36c-2.28-6.65,21.53,38.87,21.55,45.62s1.38,17.16-17.46,17.18-20.24-7-20.24-16.9S950.33,1017,948.05,1010.36Z" transform="translate(-86.71 -220.9)"/>
      <path class="cls-34" d="M915,1076.72c-1.76,8.3-1.08,17.41,4.7,24.58s22.22,9.35,27.27,1.87c1.5-2.22-.55-4.79-.38-7.29.39-5.51-2.62-11-2.23-16.54.34-4.95,3.83-9.64-.5-13.35-5.94-5.08-27.44-5.39-28.86,10.73" transform="translate(-86.71 -220.9)"/>
    </g>
  </g>
  <g id="ir3">
    <g>
      <g>
        <g>
          <circle class="cls-52" cx="1051.15" cy="1047.41" r="80.19"/>
          <circle class="cls-53" cx="1049.9" cy="1046" r="59.68"/>
          <circle class="cls-54" cx="1049.9" cy="1046" r="36.47"/>
        </g>
        <circle class="cls-55" cx="1049.9" cy="1046" r="10.81"/>
      </g>
      <g>
        <circle class="cls-5" cx="1053" cy="367.28" r="70.01"/>
        <circle class="cls-6" cx="1049.98" cy="368.52" r="70.01"/>
        <path class="cls-7" d="M1124.61,605.16l-15.28-13.89c-1.19-1.08-2.49-2.67-1.75-4.1s2.54-1.34,4-1.17l11.51,1.33c-1.48-3.41-.48-7.47,1.49-10.63s4.79-5.68,7.34-8.4a15.78,15.78,0,0,1,4.32-3.74,34.15,34.15,0,0,1,3.22-1.16,11.28,11.28,0,0,0,6.55-6.81,5.59,5.59,0,0,0,.3-2.89c-.37-1.8-2-3-3.48-4.12-2.41-1.72-4.9-3.48-7.76-4.24s-6.24-.33-8.26,1.85c-1.68,1.81-3,4.95-5.42,4.42a3.45,3.45,0,0,1-2-1.63c-2.09-3.35.71-8.9,4.58-8.15,1-.44.93-2.07.09-2.8a5,5,0,0,0-3.16-.88l-11.92-.57c-2.93-.14-6-.24-8.59,1.18a13.55,13.55,0,0,0-3.6,3.19c-7.68,8.87-12.16,20.94-10.18,32.51a33.52,33.52,0,0,0,18.88,24.43c1.65.75,3.36,1.36,5.06,2L1122,605" transform="translate(-86.71 -220.9)"/>
        <path class="cls-56" d="M1121,604.25l-15.28-13.89c-1.19-1.08-2.48-2.67-1.75-4.1s2.54-1.35,4-1.18l11.51,1.34C1118,583,1119,579,1121,575.78s4.79-5.67,7.34-8.39a16,16,0,0,1,4.32-3.75c1-.5,2.16-.74,3.22-1.15a11.28,11.28,0,0,0,6.55-6.81,5.59,5.59,0,0,0,.3-2.89c-.37-1.81-2-3-3.48-4.12-2.41-1.72-4.89-3.48-7.76-4.24s-6.24-.33-8.26,1.84c-1.68,1.82-3,5-5.42,4.43a3.45,3.45,0,0,1-2-1.63c-2.09-3.35.71-8.9,4.58-8.15,1-.45.93-2.07.09-2.81a5,5,0,0,0-3.16-.87l-11.92-.57c-2.93-.14-6-.24-8.59,1.18a13.69,13.69,0,0,0-3.6,3.18c-7.68,8.88-12.16,21-10.18,32.52A33.47,33.47,0,0,0,1101.9,598c1.65.74,3.36,1.35,5.06,2l11.43,4.07" transform="translate(-86.71 -220.9)"/>
        <path class="cls-57" d="M1123.64,530.18c3.49,0,7.06-.08,10.37,1,1.77.58,3.43,1.48,5.18,2.13a27.11,27.11,0,0,0,9.32,1.47,17.23,17.23,0,0,0,7.13-1.2,7.94,7.94,0,0,0,4.66-5.25l-3.94-2.59a12.7,12.7,0,0,0-2.5-1.38,12.21,12.21,0,0,0-3.5-.57l-16.36-1c-4.44-.29-9.49-.35-12.57,2.85a2.76,2.76,0,0,0-.79,1.24,2.46,2.46,0,0,0,1.39,2.59,7.23,7.23,0,0,0,3.08.59" transform="translate(-86.71 -220.9)"/>
        <path class="cls-7" d="M1121.81,608a10.08,10.08,0,0,0-3.34,3.53c-.68,1.49-.43,3.55,1,4.37-1.64-.62-3.1,1.68-2.58,3.36s2.07,2.78,3.31,4c5.42,5.53,4.85,14.31,5,22,0,2.48.55,5.47,2.86,6.35,2.47,1,4.9-1.25,7.2-2.57a33.17,33.17,0,0,1,4.37-1.9,38.92,38.92,0,0,0,20-18.32,11.64,11.64,0,0,0,1.55-5.46,4.87,4.87,0,0,0-2.91-4.53c-1.89-.66-3.9.27-5.86.64s-4.58-.35-4.75-2.34c-.13-1.46,1.13-3.19.08-4.21a2.54,2.54,0,0,0-1.75-.48c-3.9-.06-8.45,0-10.84-3.09a7.54,7.54,0,0,0-1.54-1.84,4.67,4.67,0,0,0-2.67-.51l-9.77.13" transform="translate(-86.71 -220.9)"/>
        <path class="cls-58" d="M1118.31,609.68a10.08,10.08,0,0,0-3.34,3.53c-.69,1.49-.43,3.55,1,4.37-1.64-.62-3.1,1.68-2.58,3.36s2.07,2.78,3.3,4c5.42,5.53,4.86,14.31,5,22,0,2.47.55,5.47,2.85,6.35,2.48,1,4.91-1.25,7.21-2.57a31.89,31.89,0,0,1,4.37-1.9,39,39,0,0,0,20-18.32,11.64,11.64,0,0,0,1.55-5.46,4.9,4.9,0,0,0-2.92-4.53c-1.88-.66-3.89.27-5.85.64s-4.58-.35-4.75-2.34c-.13-1.46,1.13-3.19.08-4.21a2.54,2.54,0,0,0-1.75-.48c-3.9-.06-8.45,0-10.84-3.09a7.24,7.24,0,0,0-1.55-1.85,4.63,4.63,0,0,0-2.66-.5l-9.77.12" transform="translate(-86.71 -220.9)"/>
        <path class="cls-7" d="M1190.35,615V601.3a4.36,4.36,0,0,0-.45-2.38c-1.07-1.7-3.6-1.18-5.61-1.21a8,8,0,0,1-5.35-2.21c-2.92-2.82-3.21-7.33-3.31-11.4s-.14-8.44,2.06-11.87a14.65,14.65,0,0,1,6-5,4.65,4.65,0,0,1,3.56-.6,5,5,0,0,1,1.83,1.47c2.51,2.75,5.09,5.63,6.13,9.2,1.26,4.29.11,8.91.57,13.36.36,3.57,1.75,7,1.63,10.6-.15,4.89-3.06,9.22-5.87,13.23l-.68-.54" transform="translate(-86.71 -220.9)"/>
        <path class="cls-59" d="M1193,616.26v-13.7a4.4,4.4,0,0,0-.45-2.37c-1.07-1.71-3.6-1.19-5.62-1.22a8,8,0,0,1-5.34-2.2c-2.92-2.83-3.21-7.34-3.32-11.41s-.13-8.43,2.07-11.87a14.65,14.65,0,0,1,6-5,4.6,4.6,0,0,1,3.56-.59,5.11,5.11,0,0,1,1.83,1.46c2.5,2.75,5.08,5.63,6.13,9.2,1.26,4.3.11,8.91.57,13.37.36,3.56,1.75,7,1.63,10.59-.16,4.9-3.07,9.22-5.87,13.23l-.69-.54" transform="translate(-86.71 -220.9)"/>
        <circle class="cls-60" cx="1049.98" cy="367.37" r="70.99"/>
      </g>
      <g>
        <circle class="cls-13" cx="1104.01" cy="610.69" r="32.05"/>
        <circle class="cls-13" cx="1085.02" cy="559.67" r="32.05"/>
        <circle class="cls-13" cx="1038.21" cy="546.58" r="32.05"/>
        <circle class="cls-13" cx="997.06" cy="586.97" r="32.05"/>
        <circle class="cls-13" cx="1003.48" cy="630.32" r="32.05"/>
        <circle class="cls-13" cx="1063.12" cy="647.89" r="32.05"/>
        <circle class="cls-61" cx="1085.02" cy="563.37" r="32.05"/>
        <circle class="cls-62" cx="1035.53" cy="546.58" r="32.05"/>
        <circle class="cls-63" cx="995.78" cy="588.74" r="32.05"/>
        <circle class="cls-64" cx="1003.48" cy="636.2" r="32.05"/>
        <circle class="cls-65" cx="1058.71" cy="651.08" r="32.05"/>
        <circle class="cls-66" cx="1099.64" cy="613.25" r="32.05"/>
        <circle class="cls-67" cx="1048.35" cy="604.15" r="37.72"/>
        <circle class="cls-68" cx="1048.35" cy="605.09" r="28.19"/>
      </g>
      <g>
        <path class="cls-22" d="M1133.84,323.15c-50.53,0-91.49,41.26-91.49,92.15" transform="translate(-86.71 -220.9)"/>
        <path class="cls-23" d="M1131.25,340.8c-37.59,0-69.87,32.34-69.87,73.46" transform="translate(-86.71 -220.9)"/>
        <path class="cls-24" d="M1132.62,356.76c-29.64,0-56.84,24.9-56.84,58" transform="translate(-86.71 -220.9)"/>
        <path class="cls-25" d="M1132.62,390.29c-14.17,0-25.14,9.64-25.14,23.8" transform="translate(-86.71 -220.9)"/>
        <path class="cls-26" d="M1132.62,372.21c-21.25,0-41.67,18.69-41.67,42.18" transform="translate(-86.71 -220.9)"/>
        <path class="cls-25" d="M1132.62,390.1c14.16,0,25.13,9.64,25.13,23.8" transform="translate(-86.71 -220.9)"/>
        <path class="cls-26" d="M1131.25,372.21c23,0,45,18.69,45,42.18" transform="translate(-86.71 -220.9)"/>
        <path class="cls-23" d="M1132.62,340.63c41.85,0,77.79,32.92,77.79,74.77" transform="translate(-86.71 -220.9)"/>
        <path class="cls-22" d="M1137.71,323.13a93.18,93.18,0,0,1,93.18,93.18h0" transform="translate(-86.71 -220.9)"/>
        <path class="cls-27" d="M1057.06,415a74.19,74.19,0,0,1,148.38,0" transform="translate(-86.71 -220.9)"/>
        <path class="cls-28" d="M1087.92,414.82a42.32,42.32,0,0,1,84.63,0" transform="translate(-86.71 -220.9)"/>
        <path class="cls-29" d="M1105.84,414.39a24.39,24.39,0,1,1,48.78,0" transform="translate(-86.71 -220.9)"/>
        <path class="cls-30" d="M1038.88,416.32a93.19,93.19,0,0,1,186.37-1.93c0,.64,0,1.29,0,1.93" transform="translate(-86.71 -220.9)"/>
        <path class="cls-24" d="M1130.24,356.39c32.52,0,62.38,24.46,62.38,57" transform="translate(-86.71 -220.9)"/>
        <path class="cls-31" d="M1072.17,414.82a58.06,58.06,0,0,1,116.12-.05v.05" transform="translate(-86.71 -220.9)"/>
      </g>
      <path class="cls-6" d="M1146.82,961.68c-5.85-17.07,55.17,99.64,55.25,117s3.52,44-44.78,44-51.88-17.94-51.88-43.34S1152.66,978.75,1146.82,961.68Z" transform="translate(-86.71 -220.9)"/>
      <path class="cls-32" d="M1148.91,985.64c-4.09-11.93,38.58,69.66,38.63,81.77s2.46,30.75-31.31,30.79-36.27-12.54-36.27-30.3S1153,997.58,1148.91,985.64Z" transform="translate(-86.71 -220.9)"/>
      <path class="cls-33" d="M1151.06,1010.26c-2.28-6.66,21.52,38.86,21.55,45.62s1.38,17.15-17.46,17.18-20.24-7-20.24-16.91S1153.34,1016.92,1151.06,1010.26Z" transform="translate(-86.71 -220.9)"/>
      <path class="cls-34" d="M1118,1076.62c-1.77,8.29-1.08,17.4,4.7,24.58s22.21,9.35,27.27,1.87c1.5-2.22-.55-4.8-.38-7.29.38-5.51-2.62-11-2.23-16.54.34-5,3.83-9.64-.51-13.36-5.93-5.08-27.43-5.38-28.85,10.74" transform="translate(-86.71 -220.9)"/>
    </g>
  </g>
  <g id="lever">
    <g>
      <polygon class="cls-69" points="211.97 239.61 480.49 830.35 353.3 960.96 57.35 309.89 211.97 239.61"/>
      <circle class="cls-70" cx="129.85" cy="263.97" r="129.85"/>
    </g>
  </g>
  <g id="machine">
    <polygon class="cls-71" points="1160.82 1971.78 1161.24 118.53 1331.08 0 1330.66 1670.8 1160.82 1971.78"/>
    <polygon class="cls-72" points="933.12 2258.88 933.12 1085.09 1159.23 892.88 1160.82 1971.78 933.12 2258.88"/>
    <polygon class="cls-73" points="385.67 892.88 385.67 118.53 555.51 0 555.51 774.35 385.67 892.88"/>
    <rect class="cls-74" x="385.67" y="700.54" width="774.35" height="192.28"/>
    <polygon class="cls-75" points="933.12 2258.88 158.77 2258.88 158.77 1086.83 933.12 1085.09 933.12 2258.88"/>
    <polygon class="cls-76" points="933.12 1085.09 158.77 1085.09 385.67 892.82 1160.02 892.82 933.12 1085.09"/>
    <rect class="cls-77" x="385.67" y="118.55" width="774.35" height="384.55"/>
    <polygon class="cls-78" points="1160.02 126.24 385.67 126.24 559.33 0 1333.68 0 1160.02 126.24"/>
  </g>
</svg>
